<?xml version="1.0" encoding="utf-8"?>
<svg viewBox="0 0 1080 1080" xmlns="http://www.w3.org/2000/svg" xmlns:xlink="http://www.w3.org/1999/xlink" xmlns:bx="https://boxy-svg.com">
  <defs>
    <linearGradient id="gradient-3-0" gradientUnits="userSpaceOnUse" x1="50" y1="22.116" x2="50" y2="81.885" xlink:href="#gradient-3"/>
    <linearGradient id="gradient-3" bx:pinned="true">
      <stop offset="0" style="stop-color: rgb(31, 88, 142);"/>
      <stop offset="1" style="stop-color: rgb(234, 32, 240);"/>
    </linearGradient>
    <linearGradient gradientUnits="userSpaceOnUse" x1="50" y1="22.116" x2="50" y2="81.885" id="gradient-0">
      <stop offset="0" style="stop-color: rgb(80.392% 39.608% 94.118%)"/>
      <stop offset="1" style="stop-color: rgb(53.447% 12.465% 67.454%)"/>
    </linearGradient>
    <linearGradient gradientUnits="userSpaceOnUse" x1="50" y1="22.116" x2="50" y2="81.885" id="gradient-1" gradientTransform="matrix(0.280355, 0.959897, -0.692148, 0.202154, 71.872447, -21.586794)">
      <stop offset="0" style="stop-color: rgb(205, 101, 240);"/>
      <stop offset="1" style="stop-color: rgb(234, 32, 240);"/>
    </linearGradient>
    <style bx:fonts="Chewy">@import url(https://fonts.googleapis.com/css2?family=Chewy%3Aital%2Cwght%400%2C400&amp;display=swap);</style>
  </defs>
  <g transform="matrix(1, 0, 0, 1, 540, 540)" id="0ba36595-cec3-474e-a387-0229277038cd"/>
  <g transform="matrix(1, 0, 0, 1, 540, 540)" id="71bb114a-f416-4a8d-9b92-b7abc5d23389"/>
  <g transform="matrix(13.930000305175781, 0, 0, 13.930000305175781, 545.1661376953125, 577.8373413085938)">
    <path style="stroke-width: 0; stroke-dasharray: none; stroke-linecap: butt; stroke-dashoffset: 0; stroke-linejoin: miter; stroke-miterlimit: 4; fill-rule: nonzero; opacity: 1; fill: url('#gradient-3-0'); stroke: url('#gradient-0');" vector-effect="non-scaling-stroke" transform=" translate(-50, -52)" d="M 80.738 22.116 L 19.262 22.116 C 16.679000000000002 22.116 14.61 24.184 14.61 26.77 L 14.61 63.428 C 14.61 65.961 16.68 68.08 19.262 68.08 L 45.218 68.08 L 61.55500000000001 81.88499999999999 L 55.402 68.08 L 80.738 68.08 C 83.271 68.08 85.39 65.961 85.39 63.428 L 85.39 26.77 C 85.391 24.184 83.271 22.116 80.738 22.116 z" stroke-linecap="round"/>
  </g>
  <g transform="matrix(13.930000305175781, 0, 0, 13.930000305175781, 520.6300048828125, 550.6300048828125)">
    <path style="stroke: rgb(205, 101, 240); stroke-width: 0; stroke-dasharray: none; stroke-linecap: butt; stroke-dashoffset: 0; stroke-linejoin: miter; stroke-miterlimit: 4; fill-rule: nonzero; opacity: 1; paint-order: fill; fill: url('#gradient-1');" vector-effect="non-scaling-stroke" transform=" translate(-50, -52)" d="M 80.738 22.116 L 19.262 22.116 C 16.679000000000002 22.116 14.61 24.184 14.61 26.77 L 14.61 63.428 C 14.61 65.961 16.68 68.08 19.262 68.08 L 45.218 68.08 L 61.55500000000001 81.88499999999999 L 55.402 68.08 L 80.738 68.08 C 83.271 68.08 85.39 65.961 85.39 63.428 L 85.39 26.77 C 85.391 24.184 83.271 22.116 80.738 22.116 z" stroke-linecap="round"/>
  </g>
  <g transform="matrix(0, 0, 0, 0, 0, 0)">
    <g style=""/>
  </g>
  <g transform="matrix(0, 0, 0, 0, 0, 0)">
    <g style=""/>
  </g>
  <g transform="matrix(0, 0, 0, 0, 0, 0)">
    <g style=""/>
  </g>
  <g transform="matrix(0, 0, 0, 0, 0, 0)">
    <g style=""/>
  </g>
  <g transform="matrix(2.180000066757202, 0, 0, 2.180000066757202, 499.6103515625, 466.11785888671875)" style="" id="769bb00d-c0d9-4b89-9419-5d756950c4de">
    <text style="fill: rgb(255, 255, 255); font-family: Chewy; font-size: 108.7px; font-weight: 900; letter-spacing: 1.9px; white-space: pre;" x="-184.05" y="36.008">Avabuzz</text>
  </g>
</svg>